<?xml version="1.0" encoding="utf-8"?>
<!-- Generator: Adobe Illustrator 22.1.0, SVG Export Plug-In . SVG Version: 6.00 Build 0)  -->
<svg version="1.1" id="Layer_1" xmlns="http://www.w3.org/2000/svg" xmlns:xlink="http://www.w3.org/1999/xlink" x="0px" y="0px"
	 viewBox="0 0 129.313 134.886" enable-background="new 0 0 129.313 134.886" xml:space="preserve">
<g>
	<g>
		<g>
			<linearGradient id="SVGID_1_" gradientUnits="userSpaceOnUse" x1="64.4232" y1="113.1133" x2="64.4232" y2="1.3184">
				<stop  offset="0" style="stop-color:#EFDC10"/>
				<stop  offset="1" style="stop-color:#FEE700"/>
			</linearGradient>
			<circle fill="url(#SVGID_1_)" cx="64.423" cy="57.216" r="55.897"/>
			<path opacity="0.4" fill="#FFFFFF" d="M64.423,112.224c-30.722,0-55.646-24.788-55.886-55.453
				c-0.001,0.149-0.012,0.296-0.012,0.445c0,30.871,25.026,55.897,55.897,55.897c30.871,0,55.897-25.027,55.897-55.897
				c0-0.149-0.01-0.296-0.012-0.445C120.069,87.436,95.146,112.224,64.423,112.224z"/>
			<radialGradient id="SVGID_2_" cx="64.4232" cy="57.2159" r="45.8928" gradientUnits="userSpaceOnUse">
				<stop  offset="0" style="stop-color:#2B2C2B"/>
				<stop  offset="0.2806" style="stop-color:#2D2D2D"/>
				<stop  offset="0.4328" style="stop-color:#343333"/>
				<stop  offset="0.5543" style="stop-color:#3F3D3C"/>
				<stop  offset="0.6595" style="stop-color:#4F4C4B"/>
				<stop  offset="0.7541" style="stop-color:#666362"/>
				<stop  offset="0.8413" style="stop-color:#888483"/>
				<stop  offset="0.921" style="stop-color:#B5B1B1"/>
				<stop  offset="0.9959" style="stop-color:#F7F6F6"/>
				<stop  offset="1" style="stop-color:#FFFFFF"/>
			</radialGradient>
			<circle fill="url(#SVGID_2_)" cx="64.423" cy="57.216" r="45.893"/>
			<linearGradient id="SVGID_3_" gradientUnits="userSpaceOnUse" x1="64.4232" y1="99.9298" x2="64.4232" y2="14.5019">
				<stop  offset="0" style="stop-color:#B4B4B4"/>
				<stop  offset="1" style="stop-color:#E6E6E5"/>
			</linearGradient>
			<circle fill="url(#SVGID_3_)" cx="64.423" cy="57.216" r="42.714"/>
			<path opacity="0.4" fill="#FFFFFF" d="M64.423,15.392c23.441,0,42.463,18.885,42.702,42.269c0.002-0.149,0.012-0.296,0.012-0.445
				c0-23.59-19.124-42.714-42.714-42.714S21.709,33.626,21.709,57.216c0,0.149,0.01,0.296,0.012,0.445
				C21.96,34.276,40.982,15.392,64.423,15.392z"/>
			<path opacity="0.2" fill="#010101" d="M64.423,99.04c-23.441,0-42.463-18.885-42.702-42.269
				c-0.002,0.149-0.012,0.296-0.012,0.445c0,23.59,19.124,42.714,42.714,42.714s42.714-19.124,42.714-42.714
				c0-0.149-0.01-0.296-0.012-0.445C106.886,80.155,87.864,99.04,64.423,99.04z"/>
		</g>
		<g opacity="0.4">
			<path fill="#FFFFFF" d="M50.837,56.833l13.208,8.545c0.23,0.149,0.526,0.149,0.756,0l13.208-8.545
				c0.582-0.377,0.315-1.28-0.378-1.28h-3.878c-0.384,0-0.696-0.311-0.696-0.696V35.31c0-0.384-0.312-0.696-0.696-0.696H56.484
				c-0.384,0-0.695,0.312-0.695,0.696v19.547c0,0.384-0.312,0.696-0.696,0.696h-3.879C50.522,55.553,50.255,56.456,50.837,56.833z
				 M85.034,69.1v7.239c0,1.921-1.558,3.478-3.478,3.478H47.291c-1.921,0-3.478-1.558-3.478-3.478V69.1
				c0-1.921,1.558-3.478,3.478-3.478s3.478,1.557,3.478,3.478v3.762h27.31V69.1c0-1.921,1.557-3.478,3.478-3.478
				S85.034,67.179,85.034,69.1z"/>
			<path fill="#FFFFFF" d="M50.837,56.889l13.208,8.545c0.23,0.149,0.526,0.149,0.756,0l13.208-8.545
				c0.582-0.377,0.315-1.28-0.378-1.28h-3.878c-0.384,0-0.696-0.311-0.696-0.696V35.366c0-0.384-0.312-0.696-0.696-0.696H56.484
				c-0.384,0-0.695,0.312-0.695,0.696v19.547c0,0.384-0.312,0.696-0.696,0.696h-3.879C50.522,55.609,50.255,56.512,50.837,56.889z
				 M85.034,69.156v7.239c0,1.921-1.558,3.478-3.478,3.478H47.291c-1.921,0-3.478-1.558-3.478-3.478v-7.239
				c0-1.921,1.558-3.478,3.478-3.478s3.478,1.557,3.478,3.478v3.762h27.31v-3.762c0-1.921,1.557-3.478,3.478-3.478
				S85.034,67.235,85.034,69.156z"/>
			<path fill="#FFFFFF" d="M50.837,56.945l13.208,8.545c0.23,0.149,0.526,0.149,0.756,0l13.208-8.545
				c0.582-0.377,0.315-1.28-0.378-1.28h-3.878c-0.384,0-0.696-0.311-0.696-0.696V35.423c0-0.384-0.312-0.696-0.696-0.696H56.484
				c-0.384,0-0.695,0.312-0.695,0.696V54.97c0,0.384-0.312,0.696-0.696,0.696h-3.879C50.522,55.666,50.255,56.569,50.837,56.945z
				 M85.034,69.212v7.239c0,1.921-1.558,3.478-3.478,3.478H47.291c-1.921,0-3.478-1.558-3.478-3.478v-7.239
				c0-1.921,1.558-3.478,3.478-3.478s3.478,1.557,3.478,3.478v3.762h27.31v-3.762c0-1.921,1.557-3.478,3.478-3.478
				S85.034,67.292,85.034,69.212z"/>
			<path fill="#FFFFFF" d="M50.837,57.002l13.208,8.545c0.23,0.149,0.526,0.149,0.756,0l13.208-8.545
				c0.582-0.377,0.315-1.28-0.378-1.28h-3.878c-0.384,0-0.696-0.311-0.696-0.696V35.479c0-0.384-0.312-0.696-0.696-0.696H56.484
				c-0.384,0-0.695,0.312-0.695,0.696v19.547c0,0.384-0.312,0.696-0.696,0.696h-3.879C50.522,55.722,50.255,56.625,50.837,57.002z
				 M85.034,69.269v7.239c0,1.921-1.558,3.478-3.478,3.478H47.291c-1.921,0-3.478-1.558-3.478-3.478v-7.239
				c0-1.921,1.558-3.478,3.478-3.478s3.478,1.557,3.478,3.478v3.762h27.31v-3.762c0-1.921,1.557-3.478,3.478-3.478
				S85.034,67.348,85.034,69.269z"/>
			<path fill="#FFFFFF" d="M50.837,57.058l13.208,8.545c0.23,0.149,0.526,0.149,0.756,0l13.208-8.545
				c0.582-0.377,0.315-1.28-0.378-1.28h-3.878c-0.384,0-0.696-0.311-0.696-0.696V35.536c0-0.384-0.312-0.696-0.696-0.696H56.484
				c-0.384,0-0.695,0.312-0.695,0.696v19.547c0,0.384-0.312,0.696-0.696,0.696h-3.879C50.522,55.779,50.255,56.682,50.837,57.058z
				 M85.034,69.325v7.239c0,1.921-1.558,3.478-3.478,3.478H47.291c-1.921,0-3.478-1.558-3.478-3.478v-7.239
				c0-1.921,1.558-3.478,3.478-3.478s3.478,1.557,3.478,3.478v3.762h27.31v-3.762c0-1.921,1.557-3.478,3.478-3.478
				S85.034,67.404,85.034,69.325z"/>
			<path fill="#FFFFFF" d="M50.837,57.115l13.208,8.545c0.23,0.149,0.526,0.149,0.756,0l13.208-8.545
				c0.582-0.377,0.315-1.28-0.378-1.28h-3.878c-0.384,0-0.696-0.311-0.696-0.696V35.592c0-0.384-0.312-0.696-0.696-0.696H56.484
				c-0.384,0-0.695,0.312-0.695,0.696v19.547c0,0.384-0.312,0.696-0.696,0.696h-3.879C50.522,55.835,50.255,56.738,50.837,57.115z
				 M85.034,69.382v7.239c0,1.921-1.558,3.478-3.478,3.478H47.291c-1.921,0-3.478-1.558-3.478-3.478v-7.239
				c0-1.921,1.558-3.478,3.478-3.478s3.478,1.557,3.478,3.478v3.762h27.31v-3.762c0-1.921,1.557-3.478,3.478-3.478
				S85.034,67.461,85.034,69.382z"/>
			<path fill="#FFFFFF" d="M50.837,57.171l13.208,8.545c0.23,0.149,0.526,0.149,0.756,0l13.208-8.545
				c0.582-0.377,0.315-1.28-0.378-1.28h-3.878c-0.384,0-0.696-0.311-0.696-0.696V35.649c0-0.384-0.312-0.696-0.696-0.696H56.484
				c-0.384,0-0.695,0.312-0.695,0.696v19.547c0,0.384-0.312,0.696-0.696,0.696h-3.879C50.522,55.891,50.255,56.795,50.837,57.171z
				 M85.034,69.438v7.239c0,1.921-1.558,3.478-3.478,3.478H47.291c-1.921,0-3.478-1.558-3.478-3.478v-7.239
				c0-1.921,1.558-3.478,3.478-3.478s3.478,1.557,3.478,3.478V73.2h27.31v-3.762c0-1.921,1.557-3.478,3.478-3.478
				S85.034,67.517,85.034,69.438z"/>
			<path fill="#FFFFFF" d="M50.837,57.228l13.208,8.545c0.23,0.149,0.526,0.149,0.756,0l13.208-8.545
				c0.582-0.377,0.315-1.28-0.378-1.28h-3.878c-0.384,0-0.696-0.311-0.696-0.696V35.705c0-0.384-0.312-0.696-0.696-0.696H56.484
				c-0.384,0-0.695,0.312-0.695,0.696v19.547c0,0.384-0.312,0.696-0.696,0.696h-3.879C50.522,55.948,50.255,56.851,50.837,57.228z
				 M85.034,69.495v7.239c0,1.921-1.558,3.478-3.478,3.478H47.291c-1.921,0-3.478-1.558-3.478-3.478v-7.239
				c0-1.921,1.558-3.478,3.478-3.478s3.478,1.557,3.478,3.478v3.762h27.31v-3.762c0-1.921,1.557-3.478,3.478-3.478
				S85.034,67.574,85.034,69.495z"/>
			<path fill="#FFFFFF" d="M50.837,57.284l13.208,8.545c0.23,0.149,0.526,0.149,0.756,0l13.208-8.545
				c0.582-0.377,0.315-1.28-0.378-1.28h-3.878c-0.384,0-0.696-0.311-0.696-0.696V35.762c0-0.384-0.312-0.696-0.696-0.696H56.484
				c-0.384,0-0.695,0.312-0.695,0.696v19.547c0,0.384-0.312,0.696-0.696,0.696h-3.879C50.522,56.004,50.255,56.908,50.837,57.284z
				 M85.034,69.551v7.239c0,1.921-1.558,3.478-3.478,3.478H47.291c-1.921,0-3.478-1.558-3.478-3.478v-7.239
				c0-1.921,1.558-3.478,3.478-3.478s3.478,1.557,3.478,3.478v3.762h27.31v-3.762c0-1.921,1.557-3.478,3.478-3.478
				S85.034,67.63,85.034,69.551z"/>
			<path fill="#FFFFFF" d="M50.837,57.341l13.208,8.545c0.23,0.149,0.526,0.149,0.756,0l13.208-8.545
				c0.582-0.377,0.315-1.28-0.378-1.28h-3.878c-0.384,0-0.696-0.311-0.696-0.696V35.818c0-0.384-0.312-0.696-0.696-0.696H56.484
				c-0.384,0-0.695,0.312-0.695,0.696v19.547c0,0.384-0.312,0.696-0.696,0.696h-3.879C50.522,56.061,50.255,56.964,50.837,57.341z
				 M85.034,69.608v7.239c0,1.921-1.558,3.478-3.478,3.478H47.291c-1.921,0-3.478-1.558-3.478-3.478v-7.239
				c0-1.921,1.558-3.478,3.478-3.478s3.478,1.557,3.478,3.478v3.762h27.31v-3.762c0-1.921,1.557-3.478,3.478-3.478
				S85.034,67.687,85.034,69.608z"/>
			<path fill="#FFFFFF" d="M50.837,57.397l13.208,8.545c0.23,0.149,0.526,0.149,0.756,0l13.208-8.545
				c0.582-0.377,0.315-1.28-0.378-1.28h-3.878c-0.384,0-0.696-0.311-0.696-0.696V35.875c0-0.384-0.312-0.696-0.696-0.696H56.484
				c-0.384,0-0.695,0.312-0.695,0.696v19.547c0,0.384-0.312,0.696-0.696,0.696h-3.879C50.522,56.117,50.255,57.021,50.837,57.397z
				 M85.034,69.664v7.239c0,1.921-1.558,3.478-3.478,3.478H47.291c-1.921,0-3.478-1.558-3.478-3.478v-7.239
				c0-1.921,1.558-3.478,3.478-3.478s3.478,1.557,3.478,3.478v3.762h27.31v-3.762c0-1.921,1.557-3.478,3.478-3.478
				S85.034,67.743,85.034,69.664z"/>
			<path fill="#FFFFFF" d="M50.837,57.454l13.208,8.545c0.23,0.149,0.526,0.149,0.756,0l13.208-8.545
				c0.582-0.377,0.315-1.28-0.378-1.28h-3.878c-0.384,0-0.696-0.311-0.696-0.696V35.931c0-0.384-0.312-0.696-0.696-0.696H56.484
				c-0.384,0-0.695,0.312-0.695,0.696v19.547c0,0.384-0.312,0.696-0.696,0.696h-3.879C50.522,56.174,50.255,57.077,50.837,57.454z
				 M85.034,69.721v7.239c0,1.921-1.558,3.478-3.478,3.478H47.291c-1.921,0-3.478-1.558-3.478-3.478v-7.239
				c0-1.921,1.558-3.478,3.478-3.478s3.478,1.557,3.478,3.478v3.762h27.31v-3.762c0-1.921,1.557-3.478,3.478-3.478
				S85.034,67.8,85.034,69.721z"/>
		</g>
		<path fill="#9F2F92" d="M85.034,69.1v7.239c0,1.921-1.558,3.478-3.478,3.478H47.291c-1.921,0-3.478-1.558-3.478-3.478V69.1
			c0-1.921,1.558-3.478,3.478-3.478s3.478,1.557,3.478,3.478v3.762h27.31V69.1c0-1.921,1.557-3.478,3.478-3.478
			S85.034,67.179,85.034,69.1z M50.837,56.833l13.208,8.545c0.23,0.149,0.526,0.149,0.756,0l13.208-8.545
			c0.582-0.377,0.315-1.28-0.378-1.28h-3.878c-0.384,0-0.696-0.311-0.696-0.696V35.31c0-0.384-0.312-0.696-0.696-0.696H56.484
			c-0.384,0-0.695,0.312-0.695,0.696v19.547c0,0.384-0.312,0.696-0.696,0.696h-3.879C50.522,55.553,50.255,56.456,50.837,56.833z"/>
	</g>
	<g>
		<path fill="#9F2F92" d="M18.665,126.131c0,5.671-1.599,7.354-6.107,7.354c-2.16,0-3.927-0.083-5.568-0.187v-14.334
			c1.641-0.104,3.386-0.187,5.568-0.187C17.066,118.776,18.665,120.459,18.665,126.131z M15.341,126.131
			c0-3.76-0.644-4.882-2.783-4.882c-0.915,0-1.683,0.021-2.41,0.021v9.701c0.727,0,1.538,0.021,2.41,0.021
			C14.697,130.991,15.341,129.89,15.341,126.131z"/>
		<path fill="#9F2F92" d="M30.645,130.825l0.146,2.327c-1.952,0.208-4.425,0.208-6.648,0.208c-1.911,0-3.137-1.122-3.158-2.888
			v-8.684c0.021-1.766,1.246-2.887,3.158-2.887c2.223,0,4.695,0,6.648,0.207l-0.146,2.347H25.14c-0.685,0-0.977,0.312-0.977,1.06
			v2.182h5.713v2.285h-5.713v2.763c0,0.769,0.291,1.08,0.977,1.08H30.645z"/>
		<path fill="#9F2F92" d="M42.44,119.254l-0.207,2.16c-1.205-0.041-2.971-0.062-4.487-0.062c-1.538,0-2.077,0.083-2.077,1.309
			c0,0.997,0.415,1.267,1.496,1.62l2.721,0.935c2.285,0.81,3.033,2.119,3.033,4.217c0,3.262-1.413,4.134-5.318,4.134
			c-0.914,0-2.721-0.062-4.923-0.54l0.187-2.285c2.659,0.062,3.822,0.104,4.736,0.104c1.662,0,2.119-0.229,2.119-1.392
			c0-1.018-0.394-1.267-1.35-1.579l-2.887-1.018c-2.182-0.79-2.971-2.078-2.971-4.197c0-3.282,1.516-3.968,5.214-3.968
			C39.137,118.693,40.84,118.797,42.44,119.254z"/>
		<path fill="#9F2F92" d="M55.003,119.192l-0.27,2.368c-1.351-0.083-2.223-0.104-4.03-0.104c-2.077,0-2.7,1.06-2.7,4.674
			c0,3.614,0.623,4.674,2.7,4.674c1.911,0,3.054-0.021,4.321-0.187l0.271,2.347c-1.33,0.415-2.535,0.582-4.591,0.582
			c-4.425,0-6.024-1.953-6.024-7.416c0-5.464,1.599-7.416,6.024-7.416C52.717,118.715,53.694,118.86,55.003,119.192z"/>
		<path fill="#9F2F92" d="M65.093,129.537H60.17l-1.039,3.76h-3.241l4.134-13.503c0.125-0.519,0.582-0.831,1.101-0.831h2.991
			c0.54,0,0.977,0.312,1.101,0.831l4.134,13.503h-3.219L65.093,129.537z M64.408,127.086l-1.205-4.383
			c-0.104-0.437-0.228-0.915-0.291-1.351h-0.561l-0.312,1.351l-1.205,4.383H64.408z"/>
		<path fill="#9F2F92" d="M82.123,133.297h-3.345l-1.08-4.383c-0.27-0.914-0.685-1.205-1.537-1.205h-2.223v5.588h-3.116v-14.334
			c1.724-0.166,2.887-0.187,5.463-0.187c3.739,0,5.297,0.956,5.297,4.238c0,2.015-0.707,3.303-2.742,3.552v0.104
			c0.727,0.166,1.703,0.686,2.035,2.16L82.123,133.297z M78.383,123.222c0-1.6-0.499-2.015-2.16-2.015c-0.852,0-1.599,0-2.285,0.021
			v4.03h2.285C77.884,125.258,78.383,124.801,78.383,123.222z"/>
		<path fill="#9F2F92" d="M94.976,125.03v8.268h-2.327l-0.291-1.454c-0.727,0.768-2.16,1.724-4.134,1.724
			c-3.22,0-4.57-2.222-4.57-7.478c0-5.671,1.703-7.395,6.419-7.395c1.683,0,3.054,0.125,4.404,0.499l-0.249,2.327
			c-1.413-0.062-2.805-0.104-4.051-0.104c-2.389,0-3.178,0.624-3.178,4.778c0,3.572,0.561,4.674,2.347,4.674
			c1.018,0,1.87-0.332,2.576-0.727v-5.11H94.976z"/>
		<path fill="#9F2F92" d="M105.295,129.537h-4.923l-1.039,3.76h-3.241l4.134-13.503c0.124-0.519,0.582-0.831,1.101-0.831h2.991
			c0.54,0,0.977,0.312,1.101,0.831l4.133,13.503h-3.22L105.295,129.537z M104.609,127.086l-1.205-4.383
			c-0.104-0.437-0.229-0.915-0.291-1.351h-0.561l-0.312,1.351l-1.205,4.383H104.609z"/>
		<path fill="#9F2F92" d="M122.323,133.297h-3.345l-1.08-4.383c-0.27-0.914-0.685-1.205-1.537-1.205h-2.223v5.588h-3.116v-14.334
			c1.724-0.166,2.887-0.187,5.463-0.187c3.739,0,5.297,0.956,5.297,4.238c0,2.015-0.707,3.303-2.742,3.552v0.104
			c0.727,0.166,1.703,0.686,2.035,2.16L122.323,133.297z M118.584,123.222c0-1.6-0.499-2.015-2.16-2.015
			c-0.852,0-1.599,0-2.285,0.021v4.03h2.285C118.085,125.258,118.584,124.801,118.584,123.222z"/>
	</g>
</g>
</svg>
