<?xml version="1.0" encoding="utf-8"?>
<!-- Generator: Adobe Illustrator 22.1.0, SVG Export Plug-In . SVG Version: 6.00 Build 0)  -->
<svg version="1.1" id="Layer_1" xmlns="http://www.w3.org/2000/svg" xmlns:xlink="http://www.w3.org/1999/xlink" x="0px" y="0px"
	 viewBox="0 0 191.25 109.75" enable-background="new 0 0 191.25 109.75" xml:space="preserve">
<g>
	<path fill="#FDE021" d="M151.416,2.114H39.141v0.042C18.699,2.604,2.254,19.284,2.254,39.836c0,20.55,16.445,37.232,36.887,37.679
		v0.042h112.274c20.833,0,37.722-16.889,37.722-37.722C189.138,19.003,172.249,2.114,151.416,2.114"/>
	<path fill="#9C2E91" d="M156.471,26.704h-2.12v2.138h-1.397v-2.138h-2.12v-1.365h2.12v-2.138h1.397v2.138h2.12V26.704z
		 M153.652,20.376c-3.118,0-5.644,2.528-5.644,5.646s2.527,5.646,5.644,5.646c3.119,0,5.646-2.528,5.646-5.646
		S156.772,20.376,153.652,20.376 M57.356,28.047l-3.993,12.759l-0.005,0.015l-1.746,1.746h-4.536l0.005,0.002l-3.43,10.995
		l-1.344,1.344h-7.007l-1.342-1.342l3.429-10.996l0.004-0.002h-3.956l-1.344-1.344v-0.031l4.117-13.152l1.335-1.334h18.468
		L57.356,28.047z M53.372,40.797l-0.015,0.015l0.005-0.015H53.372z M68.439,37.554h-2.336l1.824-5.836h2.336L68.439,37.554z
		 M79.474,26.704h-18.47l-1.333,1.333l-5.274,16.866h-5.737l-2.696,8.646l1.354,1.354l12.432,0.003l1.349-1.349l3.435-10.99h2.337
		l-3.436,10.995l1.344,1.344h6.726l1.333-1.334l7.98-25.525L79.474,26.704z M116.611,49.893l-2.374-7.598h2.335l2.375,7.598H116.611
		z M112.754,37.554l-1.824-5.836h2.335l1.824,5.836H112.754z M122.872,40.805l1.6-3.203l-2.991-9.569l-1.329-1.329h-18.473
		l-1.342,1.342l7.978,25.524l1.338,1.336h18.467l1.342-1.342l-3.987-12.759H122.872z M97.645,26.704l8.388,26.834l-1.368,1.368
		h-7.896l-1.654-5.288h-1.101l-1.653,5.288h-3.523l-1.653-5.288h-1.106l-1.653,5.288h-7.931l-1.342-1.342l8.396-26.86h4.402
		l2.205,7.051h0.884l2.203-7.051H97.645z M140.072,49.893l-5.68-18.174h2.336l5.68,18.174H140.072z M143.641,26.704h-18.458
		l-1.344,1.342l7.976,25.519l1.343,1.341h18.463l1.342-1.342l-7.975-25.512L143.641,26.704z"/>
	<g>
		<path fill="#FDE021" d="M28.189,96.199h-3.133c-0.02-1.627-0.448-2.279-1.425-2.279c-1.119,0-1.547,0.895-1.547,3.662v1.241
			c0,2.707,0.367,3.685,1.506,3.685c1.078,0,1.547-0.652,1.627-2.768l2.971,0.183c-0.143,3.112-1.871,5.148-4.598,5.148
			c-3.379,0-4.944-2.138-4.944-6.777c0-4.944,1.973-6.919,4.985-6.919C26.298,91.377,27.924,92.883,28.189,96.199z"/>
		<path fill="#FDE021" d="M31.057,104.849h-2.645l3.194-13.227h3.622l3.175,13.227h-3.418l-0.448-2.319h-2.992L31.057,104.849z
			 M33.397,96.811l-0.285-1.954h-0.041l-0.306,1.954l-0.752,3.54h2.075L33.397,96.811z"/>
		<path fill="#FDE021" d="M46.051,95.264v5.984c0,2.197-1.221,3.601-3.42,3.601h-3.479V91.622h3.479
			C44.81,91.622,46.051,93.067,46.051,95.264z M42.429,102.772c0.691,0,1.262-0.263,1.262-1.2v-6.593
			c0-0.915-0.469-1.282-1.262-1.282h-0.917v9.076H42.429z"/>
		<path fill="#FDE021" d="M49.243,104.849h-2.645l3.194-13.227h3.624l3.173,13.227H53.17l-0.448-2.319H49.73L49.243,104.849z
			 M51.583,96.811l-0.285-1.954h-0.041l-0.306,1.954l-0.752,3.54h2.075L51.583,96.811z"/>
		<path fill="#FDE021" d="M59.271,91.622h3.825l2.238,8.851c0.163,0.652,0.285,1.343,0.285,1.343h0.041c0,0,0.122-0.691,0.285-1.343
			l2.238-8.851h3.825l-4.07,13.227h-4.598L59.271,91.622z"/>
		<path fill="#FDE021" d="M80.879,94.634h-4.315v2.034h4.152v2.992h-4.152v2.197h4.478v2.992h-8.262V91.622h8.099V94.634z"/>
		<path fill="#FDE021" d="M91.355,101.857v2.992h-9.787v-0.143l5.026-10.072h-4.62v-3.012h9.83v0.143l-5.026,10.093H91.355z"/>
		<path fill="#FDE021" d="M102.685,104.849h-2.136v-5.393l0.041-1.669h-0.02l-1.567,5.23h-0.061l-1.567-5.23h-0.02l0.041,1.669
			v5.393h-2.136V91.622h2.054l1.649,6.145h0.02l1.649-6.145h2.054V104.849z"/>
		<path fill="#FDE021" d="M106.082,104.849h-2.645l3.194-13.227h3.624l3.173,13.227h-3.418l-0.448-2.319h-2.992L106.082,104.849z
			 M105.451,90.564l5.535-1.873v2.056h-5.535V90.564z M108.422,96.811l-0.285-1.954h-0.041l-0.306,1.954l-0.752,3.54h2.075
			L108.422,96.811z"/>
		<path fill="#FDE021" d="M113.73,95.162c0-2.442,1.853-3.785,4.09-3.785c2.319,0,3.338,1.18,3.927,2.727l-2.645,0.956
			c-0.224-0.752-0.528-1.139-1.241-1.139c-0.548,0-0.976,0.224-0.976,1.017c0,1.975,5.332,1.812,5.332,6.269
			c0,2.034-1.465,3.866-4.376,3.866c-2.788,0-3.948-1.893-4.476-3.461l3.071-0.671c0.245,1.017,0.53,1.567,1.425,1.567
			c0.774,0,1.078-0.408,1.078-1.1C118.939,99.476,113.73,99.415,113.73,95.162z"/>
		<path fill="#FDE021" d="M134.93,96.199h-3.133c-0.02-1.627-0.448-2.279-1.425-2.279c-1.119,0-1.547,0.895-1.547,3.662v1.241
			c0,2.707,0.367,3.685,1.506,3.685c1.078,0,1.547-0.652,1.627-2.768l2.971,0.183c-0.143,3.112-1.871,5.148-4.598,5.148
			c-3.379,0-4.946-2.138-4.946-6.777c0-4.944,1.975-6.919,4.987-6.919C133.038,91.377,134.665,92.883,134.93,96.199z"/>
		<path fill="#FDE021" d="M144.228,94.634h-4.315v2.034h4.152v2.992h-4.152v2.197h4.478v2.992h-8.262V91.622h8.099V94.634z"/>
		<path fill="#FDE021" d="M152.935,104.849h-2.342l-1.606-5.332h-0.795v5.332h-2.36V91.622h3.54c2.179,0,3.42,1.282,3.42,3.114v1.79
			c0,1.465-0.693,2.097-1.649,2.564L152.935,104.849z M149.25,97.542c0.611,0,1.182-0.263,1.182-1.241v-1.323
			c0-0.915-0.448-1.282-1.182-1.282h-1.058v3.846H149.25z"/>
		<path fill="#FDE021" d="M163.186,96.199h-3.133c-0.02-1.627-0.448-2.279-1.425-2.279c-1.119,0-1.547,0.895-1.547,3.662v1.241
			c0,2.707,0.367,3.685,1.506,3.685c1.078,0,1.547-0.652,1.627-2.768l2.971,0.183c-0.143,3.112-1.871,5.148-4.598,5.148
			c-3.379,0-4.944-2.138-4.944-6.777c0-4.944,1.973-6.919,4.985-6.919C161.295,91.377,162.922,92.883,163.186,96.199z"/>
		<path fill="#FDE021" d="M166.054,104.849h-2.645l3.194-13.227h3.622l3.175,13.227h-3.418l-0.448-2.319h-2.992L166.054,104.849z
			 M168.394,96.811l-0.285-1.954h-0.041l-0.306,1.954l-0.752,3.54h2.075L168.394,96.811z"/>
	</g>
</g>
<path fill="#9C2E91" d="M1164.94-100.845h-112.274v0.042c-20.443,0.448-36.887,17.127-36.887,37.68
	c0,20.55,16.445,37.232,36.887,37.679v0.042h112.274c20.833,0,37.722-16.889,37.722-37.722
	C1202.662-83.956,1185.773-100.845,1164.94-100.845"/>
<path fill="#FDE021" d="M1169.996-76.255h-2.12v2.138h-1.396v-2.138h-2.12v-1.365h2.12v-2.138h1.396v2.138h2.12V-76.255z
	 M1167.177-82.583c-3.118,0-5.644,2.528-5.644,5.646s2.526,5.646,5.644,5.646c3.119,0,5.646-2.528,5.646-5.646
	S1170.296-82.583,1167.177-82.583 M1070.88-74.912l-3.993,12.759l-0.005,0.015l-1.746,1.746h-4.536l0.005,0.002l-3.43,10.995
	l-1.344,1.344h-7.006l-1.342-1.342l3.429-10.996l0.004-0.002h-3.956l-1.344-1.344v-0.031l4.117-13.152l1.334-1.334h18.468
	L1070.88-74.912z M1066.897-62.162l-0.015,0.015l0.005-0.015H1066.897z M1081.963-65.405h-2.336l1.824-5.836h2.336L1081.963-65.405z
	 M1092.999-76.255h-18.47l-1.333,1.333l-5.274,16.866h-5.737l-2.696,8.646l1.354,1.354l12.432,0.003l1.349-1.349l3.435-10.99h2.337
	l-3.436,10.995l1.344,1.344h6.726l1.333-1.334l7.98-25.525L1092.999-76.255z M1130.136-53.066l-2.374-7.598h2.335l2.375,7.598
	H1130.136z M1126.278-65.405l-1.824-5.836h2.335l1.824,5.836H1126.278z M1136.396-62.154l1.6-3.203l-2.991-9.569l-1.329-1.329
	h-18.473l-1.342,1.342l7.978,25.524l1.338,1.336h18.467l1.343-1.342L1139-62.154H1136.396z M1111.17-76.255l8.388,26.834
	l-1.368,1.368h-7.896l-1.654-5.288h-1.101l-1.653,5.288h-3.523l-1.653-5.288h-1.106l-1.653,5.288h-7.931l-1.343-1.342l8.396-26.86
	h4.402l2.205,7.051h0.884l2.203-7.051H1111.17z M1153.597-53.066l-5.68-18.174h2.336l5.68,18.174H1153.597z M1157.166-76.255
	h-18.458l-1.344,1.342l7.976,25.519l1.343,1.341h18.463l1.342-1.342l-7.974-25.512L1157.166-76.255z"/>
<g>
	<path fill="#9C2E91" d="M1041.714-6.759h-3.133c-0.02-1.627-0.448-2.279-1.425-2.279c-1.119,0-1.547,0.895-1.547,3.662v1.241
		c0,2.707,0.367,3.685,1.506,3.685c1.078,0,1.547-0.652,1.626-2.768l2.972,0.183c-0.143,3.112-1.871,5.148-4.598,5.148
		c-3.379,0-4.944-2.138-4.944-6.777c0-4.944,1.973-6.919,4.985-6.919C1039.822-11.582,1041.449-10.075,1041.714-6.759z"/>
	<path fill="#9C2E91" d="M1044.581,1.89h-2.645l3.194-13.227h3.622l3.175,13.227h-3.418l-0.448-2.319h-2.992L1044.581,1.89z
		 M1046.921-6.148l-0.285-1.954h-0.041l-0.306,1.954l-0.752,3.54h2.075L1046.921-6.148z"/>
	<path fill="#9C2E91" d="M1059.576-7.695v5.984c0,2.197-1.221,3.601-3.42,3.601h-3.479v-13.227h3.479
		C1058.335-11.337,1059.576-9.892,1059.576-7.695z M1055.954-0.187c0.691,0,1.261-0.263,1.261-1.2V-7.98
		c0-0.915-0.469-1.282-1.261-1.282h-0.917v9.076H1055.954z"/>
	<path fill="#9C2E91" d="M1062.768,1.89h-2.646l3.194-13.227h3.624l3.173,13.227h-3.418l-0.448-2.319h-2.992L1062.768,1.89z
		 M1065.107-6.148l-0.285-1.954h-0.041l-0.306,1.954l-0.752,3.54h2.075L1065.107-6.148z"/>
	<path fill="#9C2E91" d="M1072.795-11.337h3.825l2.238,8.851c0.163,0.652,0.285,1.343,0.285,1.343h0.041
		c0,0,0.122-0.691,0.285-1.343l2.238-8.851h3.825l-4.07,13.227h-4.598L1072.795-11.337z"/>
	<path fill="#9C2E91" d="M1094.403-8.325h-4.314v2.034h4.151v2.992h-4.151v2.197h4.478V1.89h-8.262v-13.227h8.099V-8.325z"/>
	<path fill="#9C2E91" d="M1104.879-1.102V1.89h-9.787V1.747l5.026-10.072h-4.62v-3.012h9.83v0.143l-5.026,10.093H1104.879z"/>
	<path fill="#9C2E91" d="M1116.209,1.89h-2.136v-5.393l0.041-1.669h-0.02l-1.567,5.23h-0.061l-1.567-5.23h-0.02l0.041,1.669V1.89
		h-2.136v-13.227h2.054l1.649,6.145h0.02l1.649-6.145h2.054V1.89z"/>
	<path fill="#9C2E91" d="M1119.607,1.89h-2.646l3.194-13.227h3.624l3.173,13.227h-3.418l-0.448-2.319h-2.992L1119.607,1.89z
		 M1118.975-12.395l5.535-1.873v2.056h-5.535V-12.395z M1121.947-6.148l-0.285-1.954h-0.041l-0.306,1.954l-0.752,3.54h2.075
		L1121.947-6.148z"/>
	<path fill="#9C2E91" d="M1127.254-7.797c0-2.442,1.853-3.785,4.09-3.785c2.319,0,3.338,1.18,3.927,2.727l-2.645,0.956
		c-0.224-0.752-0.528-1.139-1.241-1.139c-0.548,0-0.976,0.224-0.976,1.017c0,1.975,5.332,1.812,5.332,6.269
		c0,2.034-1.465,3.866-4.376,3.866c-2.788,0-3.948-1.893-4.476-3.461l3.072-0.671c0.245,1.017,0.53,1.567,1.425,1.567
		c0.774,0,1.078-0.408,1.078-1.1C1132.463-3.482,1127.254-3.543,1127.254-7.797z"/>
	<path fill="#9C2E91" d="M1148.454-6.759h-3.133c-0.02-1.627-0.448-2.279-1.425-2.279c-1.119,0-1.547,0.895-1.547,3.662v1.241
		c0,2.707,0.367,3.685,1.506,3.685c1.078,0,1.547-0.652,1.626-2.768l2.972,0.183c-0.143,3.112-1.871,5.148-4.598,5.148
		c-3.379,0-4.946-2.138-4.946-6.777c0-4.944,1.975-6.919,4.987-6.919C1146.563-11.582,1148.189-10.075,1148.454-6.759z"/>
	<path fill="#9C2E91" d="M1157.752-8.325h-4.314v2.034h4.151v2.992h-4.151v2.197h4.478V1.89h-8.262v-13.227h8.099V-8.325z"/>
	<path fill="#9C2E91" d="M1166.459,1.89h-2.342l-1.606-5.332h-0.795V1.89h-2.36v-13.227h3.54c2.179,0,3.42,1.282,3.42,3.114v1.79
		c0,1.465-0.693,2.097-1.649,2.564L1166.459,1.89z M1162.774-5.416c0.611,0,1.182-0.263,1.182-1.241V-7.98
		c0-0.915-0.448-1.282-1.182-1.282h-1.058v3.846H1162.774z"/>
	<path fill="#9C2E91" d="M1176.711-6.759h-3.133c-0.02-1.627-0.448-2.279-1.425-2.279c-1.119,0-1.547,0.895-1.547,3.662v1.241
		c0,2.707,0.367,3.685,1.506,3.685c1.078,0,1.547-0.652,1.626-2.768l2.972,0.183c-0.143,3.112-1.871,5.148-4.598,5.148
		c-3.379,0-4.944-2.138-4.944-6.777c0-4.944,1.973-6.919,4.985-6.919C1174.82-11.582,1176.446-10.075,1176.711-6.759z"/>
	<path fill="#9C2E91" d="M1179.579,1.89h-2.645l3.194-13.227h3.622l3.175,13.227h-3.418l-0.448-2.319h-2.992L1179.579,1.89z
		 M1181.918-6.148l-0.285-1.954h-0.041l-0.306,1.954l-0.752,3.54h2.075L1181.918-6.148z"/>
</g>
</svg>
