<?xml version="1.0" encoding="utf-8"?>
<!-- Generator: Adobe Illustrator 22.1.0, SVG Export Plug-In . SVG Version: 6.00 Build 0)  -->
<svg version="1.1" id="Layer_1" xmlns="http://www.w3.org/2000/svg" xmlns:xlink="http://www.w3.org/1999/xlink" x="0px" y="0px"
	 viewBox="0 0 191.5 111" enable-background="new 0 0 191.5 111" xml:space="preserve">
<g>
	<path fill="#FDE021" d="M-642.002-20.095h-112.274v0.042c-20.443,0.447-36.887,17.127-36.887,37.68
		c0,20.55,16.445,37.232,36.887,37.679v0.042h112.274c20.833,0,37.722-16.889,37.722-37.722
		C-604.28-3.206-621.169-20.095-642.002-20.095"/>
	<path fill="#9C2E91" d="M-636.946,4.495h-2.12v2.138h-1.397V4.495h-2.12V3.13h2.12V0.992h1.397V3.13h2.12V4.495z M-639.765-1.833
		c-3.118,0-5.644,2.528-5.644,5.646s2.527,5.646,5.644,5.646c3.119,0,5.646-2.528,5.646-5.646S-636.646-1.833-639.765-1.833
		 M-736.062,5.838l-3.993,12.759l-0.005,0.015l-1.746,1.746h-4.536l0.005,0.002l-3.43,10.995l-1.344,1.344h-7.007l-1.342-1.342
		l3.429-10.996l0.004-0.002h-3.956l-1.344-1.344v-0.031l4.117-13.152l1.335-1.334h18.468L-736.062,5.838z M-740.045,18.588
		l-0.015,0.015l0.005-0.015H-740.045z M-724.979,15.345h-2.336l1.824-5.836h2.336L-724.979,15.345z M-713.944,4.495h-18.47
		l-1.333,1.333l-5.274,16.866h-5.737l-2.696,8.646l1.354,1.354l12.432,0.003l1.349-1.349l3.435-10.99h2.337l-3.436,10.995
		l1.344,1.344h6.726l1.333-1.334l7.98-25.525L-713.944,4.495z M-676.806,27.684l-2.375-7.598h2.335l2.375,7.598H-676.806z
		 M-680.664,15.345l-1.824-5.836h2.335l1.824,5.836H-680.664z M-670.546,18.596l1.601-3.203l-2.991-9.569l-1.329-1.329h-18.473
		l-1.342,1.342l7.978,25.524l1.338,1.336h18.467l1.342-1.342l-3.987-12.759H-670.546z M-695.773,4.495l8.388,26.834l-1.369,1.368
		h-7.896l-1.654-5.288h-1.101l-1.653,5.288h-3.523l-1.653-5.288h-1.106l-1.653,5.288h-7.931l-1.342-1.342l8.396-26.86h4.402
		l2.205,7.051h0.884l2.203-7.051H-695.773z M-653.345,27.684l-5.68-18.174h2.336l5.68,18.174H-653.345z M-649.777,4.495h-18.458
		l-1.344,1.342l7.976,25.519l1.343,1.341h18.463l1.342-1.342l-7.975-25.512L-649.777,4.495z"/>
	<g>
		<path fill="#FDE021" d="M-765.229,73.991h-3.133c-0.02-1.627-0.448-2.279-1.425-2.279c-1.119,0-1.547,0.895-1.547,3.662v1.241
			c0,2.707,0.367,3.685,1.506,3.685c1.078,0,1.547-0.652,1.627-2.768l2.971,0.183c-0.143,3.112-1.871,5.148-4.598,5.148
			c-3.379,0-4.944-2.138-4.944-6.777c0-4.944,1.973-6.919,4.985-6.919C-767.12,69.168-765.494,70.675-765.229,73.991z"/>
		<path fill="#FDE021" d="M-762.361,82.64h-2.645l3.194-13.227h3.622l3.175,13.227h-3.418l-0.448-2.319h-2.992L-762.361,82.64z
			 M-760.021,74.602l-0.285-1.954h-0.041l-0.306,1.954l-0.752,3.54h2.075L-760.021,74.602z"/>
		<path fill="#FDE021" d="M-747.367,73.055v5.984c0,2.197-1.221,3.601-3.42,3.601h-3.479V69.413h3.479
			C-748.608,69.413-747.367,70.858-747.367,73.055z M-750.988,80.563c0.691,0,1.262-0.263,1.262-1.2V72.77
			c0-0.915-0.469-1.282-1.262-1.282h-0.917v9.076H-750.988z"/>
		<path fill="#FDE021" d="M-744.175,82.64h-2.645l3.194-13.227h3.624l3.173,13.227h-3.418l-0.448-2.319h-2.992L-744.175,82.64z
			 M-741.835,74.602l-0.285-1.954h-0.041l-0.306,1.954l-0.752,3.54h2.075L-741.835,74.602z"/>
		<path fill="#FDE021" d="M-734.147,69.413h3.825l2.238,8.851c0.163,0.652,0.285,1.343,0.285,1.343h0.041
			c0,0,0.122-0.691,0.285-1.343l2.238-8.851h3.826l-4.07,13.227h-4.598L-734.147,69.413z"/>
		<path fill="#FDE021" d="M-712.539,72.425h-4.315v2.034h4.151v2.992h-4.151v2.197h4.478v2.992h-8.262V69.413h8.099V72.425z"/>
		<path fill="#FDE021" d="M-702.063,79.648v2.992h-9.787v-0.143l5.026-10.072h-4.62v-3.012h9.83v0.143l-5.026,10.093H-702.063z"/>
		<path fill="#FDE021" d="M-690.733,82.64h-2.136v-5.393l0.041-1.669h-0.02l-1.567,5.23h-0.061l-1.567-5.23h-0.02l0.041,1.669v5.393
			h-2.136V69.413h2.054l1.649,6.145h0.02l1.649-6.145h2.054V82.64z"/>
		<path fill="#FDE021" d="M-687.335,82.64h-2.645l3.194-13.227h3.624l3.173,13.227h-3.418l-0.448-2.319h-2.992L-687.335,82.64z
			 M-687.967,68.355l5.535-1.873v2.056h-5.535V68.355z M-684.996,74.602l-0.285-1.954h-0.041l-0.306,1.954l-0.752,3.54h2.075
			L-684.996,74.602z"/>
		<path fill="#FDE021" d="M-679.688,72.953c0-2.442,1.853-3.785,4.09-3.785c2.319,0,3.338,1.18,3.927,2.727l-2.645,0.956
			c-0.224-0.752-0.528-1.139-1.241-1.139c-0.548,0-0.976,0.224-0.976,1.017c0,1.975,5.332,1.812,5.332,6.269
			c0,2.034-1.465,3.866-4.376,3.866c-2.788,0-3.948-1.893-4.476-3.461l3.071-0.671c0.245,1.017,0.53,1.567,1.425,1.567
			c0.774,0,1.078-0.408,1.078-1.1C-674.479,77.268-679.688,77.207-679.688,72.953z"/>
		<path fill="#FDE021" d="M-658.488,73.991h-3.133c-0.02-1.627-0.448-2.279-1.425-2.279c-1.119,0-1.547,0.895-1.547,3.662v1.241
			c0,2.707,0.367,3.685,1.506,3.685c1.078,0,1.547-0.652,1.627-2.768l2.971,0.183c-0.143,3.112-1.871,5.148-4.598,5.148
			c-3.379,0-4.946-2.138-4.946-6.777c0-4.944,1.975-6.919,4.987-6.919C-660.379,69.168-658.753,70.675-658.488,73.991z"/>
		<path fill="#FDE021" d="M-649.19,72.425h-4.315v2.034h4.151v2.992h-4.151v2.197h4.478v2.992h-8.262V69.413h8.099V72.425z"/>
		<path fill="#FDE021" d="M-640.483,82.64h-2.342l-1.606-5.332h-0.795v5.332h-2.36V69.413h3.54c2.179,0,3.42,1.282,3.42,3.114v1.79
			c0,1.465-0.693,2.097-1.649,2.564L-640.483,82.64z M-644.168,75.334c0.611,0,1.182-0.263,1.182-1.241V72.77
			c0-0.915-0.448-1.282-1.182-1.282h-1.058v3.846H-644.168z"/>
		<path fill="#FDE021" d="M-630.231,73.991h-3.133c-0.02-1.627-0.448-2.279-1.425-2.279c-1.119,0-1.547,0.895-1.547,3.662v1.241
			c0,2.707,0.367,3.685,1.506,3.685c1.078,0,1.547-0.652,1.627-2.768l2.971,0.183c-0.143,3.112-1.871,5.148-4.598,5.148
			c-3.379,0-4.944-2.138-4.944-6.777c0-4.944,1.973-6.919,4.985-6.919C-632.123,69.168-630.496,70.675-630.231,73.991z"/>
		<path fill="#FDE021" d="M-627.364,82.64h-2.645l3.194-13.227h3.622l3.175,13.227h-3.418l-0.448-2.319h-2.992L-627.364,82.64z
			 M-625.024,74.602l-0.285-1.954h-0.041l-0.306,1.954l-0.752,3.54h2.075L-625.024,74.602z"/>
	</g>
</g>
<path fill="#9C2E91" d="M151.477,3.87H39.203v0.042C18.76,4.36,2.315,21.04,2.315,41.592c0,20.55,16.445,37.232,36.887,37.679v0.042
	h112.274c20.833,0,37.722-16.889,37.722-37.722C189.199,20.759,172.31,3.87,151.477,3.87"/>
<path fill="#FDE021" d="M156.533,28.46h-2.12v2.138h-1.397V28.46h-2.12v-1.365h2.12v-2.138h1.397v2.138h2.12V28.46z M153.714,22.132
	c-3.118,0-5.644,2.528-5.644,5.646s2.527,5.646,5.644,5.646c3.119,0,5.646-2.528,5.646-5.646S156.833,22.132,153.714,22.132
	 M57.417,29.803l-3.993,12.759l-0.005,0.015l-1.746,1.746h-4.536l0.005,0.002l-3.43,10.995l-1.344,1.344h-7.007L34.02,55.32
	l3.429-10.996l0.004-0.002h-3.956l-1.344-1.344v-0.031l4.117-13.152l1.335-1.334h18.468L57.417,29.803z M53.434,42.553l-0.015,0.015
	l0.005-0.015H53.434z M68.5,39.31h-2.336l1.824-5.836h2.336L68.5,39.31z M79.535,28.46h-18.47l-1.333,1.333l-5.274,16.866h-5.737
	l-2.696,8.646l1.354,1.354l12.432,0.003l1.349-1.349l3.435-10.99h2.337l-3.436,10.995l1.344,1.344h6.726l1.333-1.334l7.98-25.525
	L79.535,28.46z M116.673,51.649l-2.374-7.598h2.335l2.375,7.598H116.673z M112.815,39.31l-1.824-5.836h2.335l1.824,5.836H112.815z
	 M122.933,42.561l1.6-3.203l-2.991-9.569l-1.329-1.329H101.74l-1.342,1.342l7.978,25.524l1.338,1.336h18.467l1.342-1.342
	l-3.987-12.759H122.933z M97.706,28.46l8.388,26.834l-1.368,1.368h-7.896l-1.654-5.288h-1.101l-1.653,5.288h-3.523l-1.653-5.288
	H86.14l-1.653,5.288h-7.931l-1.342-1.342l8.396-26.86h4.402l2.205,7.051H91.1l2.203-7.051H97.706z M140.134,51.649l-5.68-18.174
	h2.336l5.68,18.174H140.134z M143.702,28.46h-18.458l-1.344,1.342l7.976,25.519l1.343,1.341h18.463l1.342-1.342l-7.975-25.512
	L143.702,28.46z"/>
<g>
	<path fill="#9C2E91" d="M28.25,97.955h-3.133c-0.02-1.627-0.448-2.279-1.425-2.279c-1.119,0-1.547,0.895-1.547,3.662v1.241
		c0,2.707,0.367,3.685,1.506,3.685c1.078,0,1.547-0.652,1.627-2.768l2.971,0.183c-0.143,3.112-1.871,5.148-4.598,5.148
		c-3.379,0-4.944-2.138-4.944-6.777c0-4.944,1.973-6.919,4.985-6.919C26.359,93.133,27.985,94.639,28.25,97.955z"/>
	<path fill="#9C2E91" d="M31.118,106.605h-2.645l3.194-13.227h3.622l3.175,13.227h-3.418l-0.448-2.319h-2.992L31.118,106.605z
		 M33.458,98.567l-0.285-1.954h-0.041l-0.306,1.954l-0.752,3.54h2.075L33.458,98.567z"/>
	<path fill="#9C2E91" d="M46.112,97.02v5.984c0,2.197-1.221,3.601-3.42,3.601h-3.479V93.378h3.479
		C44.871,93.378,46.112,94.823,46.112,97.02z M42.491,104.528c0.691,0,1.262-0.263,1.262-1.2v-6.593
		c0-0.915-0.469-1.282-1.262-1.282h-0.917v9.076H42.491z"/>
	<path fill="#9C2E91" d="M49.304,106.605h-2.645l3.194-13.227h3.624l3.173,13.227h-3.418l-0.448-2.319h-2.992L49.304,106.605z
		 M51.644,98.567l-0.285-1.954h-0.041l-0.306,1.954l-0.752,3.54h2.075L51.644,98.567z"/>
	<path fill="#9C2E91" d="M59.332,93.378h3.825l2.238,8.851c0.163,0.652,0.285,1.343,0.285,1.343h0.041c0,0,0.122-0.691,0.285-1.343
		l2.238-8.851h3.825L68,106.605h-4.598L59.332,93.378z"/>
	<path fill="#9C2E91" d="M80.94,96.39h-4.315v2.034h4.152v2.992h-4.152v2.197h4.478v2.992h-8.262V93.378h8.099V96.39z"/>
	<path fill="#9C2E91" d="M91.416,103.613v2.992h-9.787v-0.143l5.026-10.072h-4.62v-3.012h9.83v0.143l-5.026,10.093H91.416z"/>
	<path fill="#9C2E91" d="M102.746,106.605h-2.136v-5.393l0.041-1.669h-0.02l-1.567,5.23h-0.061l-1.567-5.23h-0.02l0.041,1.669v5.393
		h-2.136V93.378h2.054l1.649,6.145h0.02l1.649-6.145h2.054V106.605z"/>
	<path fill="#9C2E91" d="M106.144,106.605h-2.645l3.194-13.227h3.624l3.173,13.227h-3.418l-0.448-2.319h-2.992L106.144,106.605z
		 M105.512,92.32l5.535-1.873v2.056h-5.535V92.32z M108.483,98.567l-0.285-1.954h-0.041l-0.306,1.954l-0.752,3.54h2.075
		L108.483,98.567z"/>
	<path fill="#9C2E91" d="M113.791,96.918c0-2.442,1.853-3.785,4.09-3.785c2.319,0,3.338,1.18,3.927,2.727l-2.645,0.956
		c-0.224-0.752-0.528-1.139-1.241-1.139c-0.548,0-0.976,0.224-0.976,1.017c0,1.975,5.332,1.812,5.332,6.269
		c0,2.034-1.465,3.866-4.376,3.866c-2.788,0-3.948-1.893-4.476-3.461l3.071-0.671c0.245,1.017,0.53,1.567,1.425,1.567
		c0.774,0,1.078-0.408,1.078-1.1C119,101.232,113.791,101.171,113.791,96.918z"/>
	<path fill="#9C2E91" d="M134.991,97.955h-3.133c-0.02-1.627-0.448-2.279-1.425-2.279c-1.119,0-1.547,0.895-1.547,3.662v1.241
		c0,2.707,0.367,3.685,1.506,3.685c1.078,0,1.547-0.652,1.627-2.768l2.971,0.183c-0.143,3.112-1.871,5.148-4.598,5.148
		c-3.379,0-4.946-2.138-4.946-6.777c0-4.944,1.975-6.919,4.987-6.919C133.1,93.133,134.726,94.639,134.991,97.955z"/>
	<path fill="#9C2E91" d="M144.289,96.39h-4.315v2.034h4.152v2.992h-4.152v2.197h4.478v2.992h-8.262V93.378h8.099V96.39z"/>
	<path fill="#9C2E91" d="M152.996,106.605h-2.342l-1.606-5.332h-0.795v5.332h-2.36V93.378h3.54c2.179,0,3.42,1.282,3.42,3.114v1.79
		c0,1.465-0.693,2.097-1.649,2.564L152.996,106.605z M149.311,99.298c0.611,0,1.182-0.263,1.182-1.241v-1.323
		c0-0.915-0.448-1.282-1.182-1.282h-1.058v3.846H149.311z"/>
	<path fill="#9C2E91" d="M163.248,97.955h-3.133c-0.02-1.627-0.448-2.279-1.425-2.279c-1.119,0-1.547,0.895-1.547,3.662v1.241
		c0,2.707,0.367,3.685,1.506,3.685c1.078,0,1.547-0.652,1.627-2.768l2.971,0.183c-0.143,3.112-1.871,5.148-4.598,5.148
		c-3.379,0-4.944-2.138-4.944-6.777c0-4.944,1.973-6.919,4.985-6.919C161.356,93.133,162.983,94.639,163.248,97.955z"/>
	<path fill="#9C2E91" d="M166.115,106.605h-2.645l3.194-13.227h3.622l3.175,13.227h-3.418l-0.448-2.319h-2.992L166.115,106.605z
		 M168.455,98.567l-0.285-1.954h-0.041l-0.306,1.954l-0.752,3.54h2.075L168.455,98.567z"/>
</g>
</svg>
